<?xml version="1.0" standalone="no"?>
<!DOCTYPE svg PUBLIC "-//W3C//DTD SVG 20010904//EN"
 "http://www.w3.org/TR/2001/REC-SVG-20010904/DTD/svg10.dtd">
<svg version="1.0" xmlns="http://www.w3.org/2000/svg"
 width="204.000000pt" height="192.000000pt" viewBox="0 0 204.000000 192.000000"
 preserveAspectRatio="xMidYMid meet">

<g transform="translate(0.000000,192.000000) scale(0.100000,-0.100000)"
fill="#000000" stroke="none">
<path d="M306 1673 c-6 -14 -5 -15 5 -6 7 7 10 15 7 18 -3 3 -9 -2 -12 -12z"/>
<path d="M1450 1590 c0 -5 5 -10 11 -10 5 0 7 5 4 10 -3 6 -8 10 -11 10 -2 0
-4 -4 -4 -10z"/>
<path d="M1115 1580 c-3 -6 1 -7 9 -4 18 7 21 14 7 14 -6 0 -13 -4 -16 -10z"/>
<path d="M1398 1583 c6 -2 18 -2 25 0 6 3 1 5 -13 5 -14 0 -19 -2 -12 -5z"/>
<path d="M201 1554 c-12 -15 -21 -32 -20 -38 0 -7 3 -6 6 1 3 9 10 10 22 3 22
-11 32 -4 24 17 -5 12 -7 12 -14 2 -4 -8 -11 -10 -15 -6 -4 4 1 16 11 27 10
11 15 20 12 20 -3 0 -15 -12 -26 -26z"/>
<path d="M1028 1549 c-14 -6 -29 -17 -32 -26 -6 -14 -4 -14 10 -2 9 8 29 19
43 26 32 14 17 15 -21 2z"/>
<path d="M1830 1552 c0 -6 5 -14 10 -17 6 -4 8 -10 6 -14 -3 -4 1 -8 9 -8 12
0 12 4 -2 21 -10 12 -19 23 -20 25 -2 2 -3 -1 -3 -7z"/>
<path d="M1487 1543 c-4 -3 -7 -11 -7 -17 0 -6 5 -5 12 2 6 6 9 14 7 17 -3 3
-9 2 -12 -2z"/>
<path d="M958 1513 c8 -3 5 -13 -13 -31 -51 -56 -65 -76 -64 -91 0 -14 1 -14
6 -1 3 8 25 38 49 66 40 48 46 65 20 63 -6 0 -5 -3 2 -6z"/>
<path d="M185 1480 c-3 -5 -1 -10 4 -10 6 0 11 5 11 10 0 6 -2 10 -4 10 -3 0
-8 -4 -11 -10z"/>
<path d="M1486 1403 c5 -101 5 -102 12 -75 9 29 3 152 -7 152 -4 0 -6 -35 -5
-77z"/>
<path d="M1890 1461 c0 -6 4 -13 10 -16 6 -3 7 1 4 9 -7 18 -14 21 -14 7z"/>
<path d="M127 1423 c5 -12 7 -12 14 -1 7 10 9 9 9 -3 0 -9 -7 -22 -15 -29 -17
-14 -20 -30 -6 -30 12 0 35 59 27 67 -14 14 -35 11 -29 -4z"/>
<path d="M106 1405 c-9 -26 -7 -32 5 -12 6 10 9 21 6 23 -2 3 -7 -2 -11 -11z"/>
<path d="M1926 1376 c3 -27 7 -54 11 -60 3 -6 0 -5 -8 2 -7 6 -30 12 -51 12
-27 0 -38 4 -38 15 0 13 -20 15 -120 15 -103 0 -120 -2 -120 -16 0 -13 -9 -15
-44 -13 -37 3 -43 1 -41 -13 4 -16 -6 -18 -93 -18 -194 0 -222 -28 -222 -221
l0 -109 136 0 136 0 -6 -22 c-3 -13 -14 -80 -23 -150 l-17 -128 -113 0 -113 0
0 -335 0 -335 90 0 c88 0 92 1 185 50 374 194 588 579 554 997 -8 94 -35 213
-50 213 -4 0 -10 -8 -12 -17 -3 -11 -5 -7 -6 10 0 15 3 27 8 27 12 0 2 41 -15
61 -8 9 -11 18 -8 21 3 4 -1 19 -9 35 -15 28 -15 28 -11 -21z m28 -100 c-3
-21 -8 -35 -11 -32 -2 2 -1 20 3 40 3 21 8 35 11 32 2 -2 1 -20 -3 -40z m-607
8 c-3 -3 -12 -4 -19 -1 -8 3 -5 6 6 6 11 1 17 -2 13 -5z m580 -41 c-3 -10 -5
-2 -5 17 0 19 2 27 5 18 2 -10 2 -26 0 -35z m-647 29 c0 -5 -9 -19 -19 -31
-11 -13 -22 -28 -24 -34 -2 -7 -7 -9 -11 -6 -3 3 6 22 21 42 30 39 33 42 33
29z m0 -56 c0 -3 -4 -8 -10 -11 -5 -3 -10 -1 -10 4 0 6 5 11 10 11 6 0 10 -2
10 -4z m710 -6 c0 -5 -5 -10 -11 -10 -5 0 -7 5 -4 10 3 6 8 10 11 10 2 0 4 -4
4 -10z"/>
<path d="M160 1350 c0 -5 -18 -10 -39 -10 -33 0 -51 -12 -51 -33 0 -1 20 -1
45 1 28 3 45 0 45 -7 0 -9 -65 -17 -95 -11 -5 1 -7 -2 -3 -6 4 -4 4 -12 -1
-18 -17 -21 -41 -121 -50 -213 -43 -417 194 -833 580 -1018 68 -32 81 -35 166
-35 l93 0 0 335 0 335 -127 0 -128 0 3 150 3 150 125 0 124 0 0 133 c0 116 7
176 26 239 3 12 0 15 -13 13 -10 -2 -21 -4 -25 -4 -11 -1 -10 -31 1 -31 5 0
12 6 15 13 5 12 -3 -38 -10 -61 -5 -16 -20 -8 -35 20 -6 11 -7 18 -2 15 5 -4
10 8 10 24 0 23 -3 27 -9 15 -12 -22 -88 -22 -88 -1 0 13 -38 15 -280 15 -180
0 -280 -4 -280 -10z m677 -172 c-3 -8 -6 -5 -6 6 -1 11 2 17 5 13 3 -3 4 -12
1 -19z m-770 -50 c-3 -8 -6 -5 -6 6 -1 11 2 17 5 13 3 -3 4 -12 1 -19z"/>
</g>
</svg>
